Patient4_TMGait_0pt4_03_right_11_GRF.mot
version=1
nRows=71
nColumns=19
inDegrees=no
endheader
time	F1x	F1y	F1z	M1x	M1y	M1z	F2x	F2y	F2z	M2x	M2y	M2z	EC1x	EC1y	EC1z	EC2x	EC2y	EC2z
13.41	-21.1942	772.2374	71.8557	-251.5886	-78.1947	807.5376	-19.9279	-7.9431	-3.7031	-0.062241	8.3801	-8.4408	-0.0592	0.0182	-0.0073	-0.0462	0.0165	0.9585
13.4233	-17.2819	763.8689	71.1928	-248.6365	-76.4848	798.8142	-13.4134	-4.7214	-2.6113	0.23055	5.8131	-5.0093	-0.0592	0.0182	-0.0073	-0.0462	0.0165	0.9585
13.4366	-13.1684	754.7196	70.5095	-245.3821	-74.5162	788.2771	-7.9604	-1.9471	-1.6656	0.48316	3.6396	-2.0258	-0.0592	0.0182	-0.0073	-0.0462	0.0165	0.9585
13.4499	-9.053	745.8338	69.8247	-242.1874	-72.3613	776.9713	-3.8684	0.21302	-0.93121	0.68297	1.9918	0.31094	-0.0592	0.0182	-0.0073	-0.0462	0.0165	0.9585
13.4631	-5.0658	738.296	69.122	-239.4403	-70.0695	766.1399	-1.0725	1.7506	-0.41466	0.82978	0.85649	1.9637	-0.0592	0.0182	-0.0073	-0.0462	0.0165	0.9585
13.4764	-1.2901	732.9971	68.4477	-237.466	-67.7473	756.8817	0.60801	2.7488	-0.089838	0.93161	0.16194	3.0251	-0.0592	0.0182	-0.0073	-0.0462	0.0165	0.9585
13.4897	2.2531	730.5104	67.7937	-236.4827	-65.4386	749.965	1.4396	3.3043	0.080677	0.99295	-0.18472	3.5938	-0.0592	0.0182	-0.0073	-0.0462	0.0165	0.9585
13.503	5.5862	731.0479	67.1917	-236.5802	-63.2032	745.7605	1.675	3.5254	0.13256	1.0172	-0.27178	3.7948	-0.0592	0.0182	-0.0073	-0.0462	0.0165	0.9585
13.5163	8.7827	734.4857	66.6321	-237.7312	-61.0368	744.2382	1.5141	3.479	0.097733	0.99649	-0.17559	3.7065	-0.0592	0.0182	-0.0073	-0.0462	0.0165	0.9585
13.5296	11.9272	740.4062	66.1332	-239.8024	-58.9462	745.0362	1.124	3.17	-0.0010746	0.90823	0.043458	3.3355	-0.0592	0.0182	-0.0073	-0.0462	0.0165	0.9585
13.5429	15.1315	748.1716	65.6803	-242.5811	-56.8947	747.5318	0.61505	2.5971	-0.14513	0.72935	0.34062	2.6939	-0.0592	0.0182	-0.0073	-0.0462	0.0165	0.9585
13.5561	18.4655	756.9746	65.2831	-245.7899	-54.8739	750.9335	0.091398	1.7045	-0.31508	0.4249	0.66974	1.7058	-0.0592	0.0182	-0.0073	-0.0462	0.0165	0.9585
13.5694	21.9861	765.9035	64.9274	-249.1116	-52.8549	754.3487	-0.38841	0.44142	-0.48329	-0.033369	0.98426	0.31725	-0.0592	0.0182	-0.0073	-0.0462	0.0165	0.9585
13.5827	25.7118	774.0326	64.6161	-252.2164	-50.8363	756.8951	-0.72601	-1.2205	-0.62029	-0.65996	1.2192	-1.5077	-0.0592	0.0182	-0.0073	-0.0462	0.0165	0.9585
13.596	29.5987	780.4714	64.335	-254.7785	-48.8151	757.7625	-0.80474	-3.234	-0.68609	-1.4373	1.2861	-3.7184	-0.0592	0.0182	-0.0073	-0.0462	0.0165	0.9585
13.6093	33.5762	784.3756	64.0791	-256.4812	-46.8081	756.2243	-0.48838	-5.4216	-0.62166	-2.2929	1.0655	-6.1156	-0.0592	0.0182	-0.0073	-0.0462	0.0165	0.9585
13.6226	37.4888	784.9417	63.8415	-257.0156	-44.8546	751.6526	0.42541	-7.4034	-0.35312	-3.0716	0.39835	-8.2824	-0.0592	0.0182	-0.0073	-0.0462	0.0165	0.9585
13.6359	41.1563	781.556	63.6423	-256.1326	-43.0354	743.6284	2.1421	-8.4945	0.21109	-3.4992	-0.8981	-9.4481	-0.0592	0.0182	-0.0073	-0.0462	0.0165	0.9585
13.6491	44.3816	774.0177	63.5104	-253.7186	-41.4504	732.134	4.8685	-7.6787	1.1738	-3.1651	-3.0175	-8.4836	-0.0592	0.0182	-0.0073	-0.0462	0.0165	0.9585
13.6624	47.0186	762.5802	63.4865	-249.8187	-40.2039	717.5683	8.7158	-3.5298	2.6274	-1.5004	-6.1025	-3.7994	-0.0592	0.0182	-0.0073	-0.0462	0.0165	0.9585
13.6757	48.9435	747.767	63.5737	-244.5871	-39.3564	700.5554	13.6317	5.744	4.6075	2.2041	-10.1639	6.5772	-0.0592	0.0182	-0.0073	-0.0462	0.0165	0.9585
13.689	50.0557	730.114	63.7115	-238.2038	-38.9088	681.7047	19.2439	22.1175	7.0524	8.7282	-14.9766	24.8026	-0.0592	0.0182	-0.0073	-0.0462	0.0165	0.9585
13.7023	50.297	709.8313	63.7402	-230.7669	-38.7537	661.2577	24.6659	47.4043	9.7266	18.7825	-19.9236	52.8615	-0.0592	0.0182	-0.0073	-0.0462	0.0165	0.9585
13.7156	49.6181	686.6006	63.4243	-222.2242	-38.7069	638.9297	28.3654	82.6591	12.1279	32.7692	-23.8401	91.8821	-0.0592	0.0182	-0.0073	-0.0462	0.0165	0.9585
13.7289	48.0052	659.6928	62.4326	-212.4094	-38.4754	613.9884	28.5592	127.8282	13.4309	50.6208	-25.1279	141.8308	-0.0592	0.0182	-0.0073	-0.0462	0.0165	0.9585
13.7421	45.5051	628.3552	60.4651	-201.1593	-37.7659	585.6253	24.2693	181.4598	12.7649	71.6802	-22.4394	201.1629	-0.0592	0.0182	-0.0073	-0.0462	0.0165	0.9585
13.7554	42.254	592.1762	57.3221	-188.4306	-36.3335	553.2844	15.994	240.164	9.4515	94.5285	-15.2903	266.1698	-0.0592	0.0182	-0.0073	-0.0462	0.0165	0.9585
13.7687	38.492	551.3802	53.021	-174.3825	-34.0824	516.937	5.9083	299.5721	3.7496	117.4261	-4.8233	331.875	-0.0592	0.0182	-0.0073	-0.0462	0.0165	0.9585
13.782	34.5417	506.8112	47.7537	-159.3573	-31.0399	477.0987	-4.1393	356.3842	-3.8638	139.0741	7.6697	394.4898	-0.0592	0.0182	-0.0073	-0.0462	0.0165	0.9585
13.7953	30.7171	459.5573	41.8533	-143.7504	-27.3635	434.5123	-12.9582	408.878	-12.3262	158.8442	20.5732	452.0023	-0.0592	0.0182	-0.0073	-0.0462	0.0165	0.9585
13.8086	27.1308	410.4601	35.6824	-127.8428	-23.3101	389.7928	-19.9973	456.0452	-20.8245	176.4119	32.7496	503.3005	-0.0592	0.0182	-0.0073	-0.0462	0.0165	0.9585
13.8219	23.677	360.1024	29.5701	-111.7938	-19.184	343.4192	-25.1719	497.6973	-28.4741	191.7757	43.2058	548.1832	-0.0592	0.0182	-0.0073	-0.0462	0.0165	0.9585
13.8351	20.1499	309.1591	23.7823	-95.7641	-15.2791	296.045	-28.5212	534.5351	-35.0225	205.2466	51.6637	587.4049	-0.0592	0.0182	-0.0073	-0.0462	0.0165	0.9585
13.8484	16.3556	258.6309	18.5328	-80.003	-11.8528	248.6819	-30.1983	568.0278	-40.4202	217.3984	58.1416	622.58	-0.0592	0.0182	-0.0073	-0.0462	0.0165	0.9585
13.8617	12.2277	209.8289	13.994	-64.857	-9.1003	202.6304	-30.4686	599.6743	-45.0437	228.7897	63.1453	655.3913	-0.0592	0.0182	-0.0073	-0.0462	0.0165	0.9585
13.875	7.837	164.3044	10.2347	-50.7589	-7.0827	159.4203	-29.7559	630.4784	-49.305	239.7753	67.2919	687.0188	-0.0592	0.0182	-0.0073	-0.0462	0.0165	0.9585
13.8883	3.4541	123.5654	7.268	-38.1478	-5.7494	120.5312	-28.5932	660.7829	-53.5742	250.4618	71.189	717.954	-0.0592	0.0182	-0.0073	-0.0462	0.0165	0.9585
13.9016	-0.52988	88.7559	5.0072	-27.3697	-4.9157	87.1134	-27.4203	690.3762	-57.9302	260.7704	75.1104	748.0674	-0.0592	0.0182	-0.0073	-0.0462	0.0165	0.9585
13.9149	-3.7111	60.3472	3.3465	-18.5722	-4.368	59.6785	-26.4842	718.5781	-62.2535	270.4697	79.0373	776.6962	-0.0592	0.0182	-0.0073	-0.0462	0.0165	0.9585
13.9281	-5.7739	38.1467	2.1404	-11.7024	-3.8817	38.1025	-25.8368	744.2949	-66.3186	279.1856	82.7618	802.6907	-0.0592	0.0182	-0.0073	-0.0462	0.0165	0.9585
13.9414	-6.5996	21.5574	1.2809	-6.5774	-3.3236	21.8838	-25.43	766.2177	-69.8746	286.4705	86.0066	824.6482	-0.0592	0.0182	-0.0073	-0.0462	0.0165	0.9585
13.9547	-6.2585	9.8083	0.66868	-2.9573	-2.6306	10.3146	-25.1703	783.1058	-72.7031	291.8995	88.5151	841.2289	-0.0592	0.0182	-0.0073	-0.0462	0.0165	0.9585
13.968	-5.1572	2.1266	0.26234	-0.59785	-1.892	2.6836	-24.9401	794.0076	-74.6294	295.1532	90.0707	851.393	-0.0592	0.0182	-0.0073	-0.0462	0.0165	0.9585
13.9813	-3.7767	-2.3037	0.02311	0.75725	-1.2233	-1.7852	-24.6481	798.4807	-75.5981	296.0905	90.5868	854.6527	-0.0592	0.0182	-0.0073	-0.0462	0.0165	0.9585
13.9946	-2.4391	-4.353	-0.087672	1.3817	-0.69224	-3.9251	-24.2059	796.7345	-75.6273	294.8044	90.0556	851.1994	-0.0592	0.0182	-0.0073	-0.0462	0.0165	0.9585
14.0079	-1.3098	-4.8262	-0.11663	1.5261	-0.3102	-4.5171	-23.5537	789.6878	-74.8504	291.6384	88.596	841.9777	-0.0592	0.0182	-0.0073	-0.0462	0.0165	0.9585
14.0211	-0.4447	-4.3793	-0.091007	1.3909	-0.069833	-4.202	-22.66	778.8349	-73.4155	287.1462	86.355	828.5305	-0.0592	0.0182	-0.0073	-0.0462	0.0165	0.9585
14.0344	0.1515	-3.4958	-0.036156	1.1217	0.05419	-3.4334	-21.5246	766.0171	-71.5248	282.0056	83.5456	812.7703	-0.0592	0.0182	-0.0073	-0.0462	0.0165	0.9585
14.0477	0.52802	-2.5085	0.029717	0.81438	0.09559	-2.5264	-20.1626	753.1813	-69.3621	276.9291	80.3716	796.715	-0.0592	0.0182	-0.0073	-0.0462	0.0165	0.9585
14.061	0.72442	-1.6001	0.095529	0.52379	0.081955	-1.6576	-18.6032	742.1181	-67.1385	272.567	77.0707	782.213	-0.0592	0.0182	-0.0073	-0.0462	0.0165	0.9585
14.0743	0.79898	-0.8507	0.15299	0.27614	0.040267	-0.92125	-16.8944	734.2688	-65.0023	269.4383	73.8294	770.7417	-0.0592	0.0182	-0.0073	-0.0462	0.0165	0.9585
14.0876	0.78897	-0.28657	0.20379	0.082705	-0.018235	-0.35158	-15.0611	730.5909	-63.0956	267.8824	70.8115	763.2726	-0.0592	0.0182	-0.0073	-0.0462	0.0165	0.9585
14.1009	0.72655	0.10373	0.24226	-0.057163	-0.079147	0.053599	-13.1151	731.4937	-61.4862	268.0387	68.091	760.2185	-0.0592	0.0182	-0.0073	-0.0462	0.0165	0.9585
14.1141	0.63233	0.33643	0.27506	-0.14601	-0.14077	0.29936	-11.0877	736.7922	-60.219	269.8273	65.7183	761.4117	-0.0592	0.0182	-0.0073	-0.0462	0.0165	0.9585
14.1274	0.51462	0.42741	0.30651	-0.18789	-0.20562	0.39885	-9.0067	745.7437	-59.2792	272.9614	63.6814	766.1335	-0.0592	0.0182	-0.0073	-0.0462	0.0165	0.9585
14.1407	0.38696	0.37178	0.342	-0.17991	-0.28005	0.33077	-6.9081	757.1347	-58.6529	276.9767	61.9695	773.2163	-0.0592	0.0182	-0.0073	-0.0462	0.0165	0.9585
14.154	0.25212	0.16599	0.38557	-0.11757	-0.37248	0.090356	-4.8355	769.4183	-58.2896	281.2859	60.5405	781.1806	-0.0592	0.0182	-0.0073	-0.0462	0.0165	0.9585
14.1673	0.11709	-0.21873	0.43754	0.0090483	-0.48468	-0.35084	-2.8266	780.9164	-58.1497	285.2527	59.3672	788.4354	-0.0592	0.0182	-0.0073	-0.0462	0.0165	0.9585
14.1806	-0.016913	-0.82493	0.50168	0.21291	-0.61853	-1.0368	-0.89688	790.0496	-58.1832	288.279	58.4085	793.4894	-0.0592	0.0182	-0.0073	-0.0462	0.0165	0.9585
14.1939	-0.14012	-1.6757	0.57214	0.50194	-0.76336	-1.9963	0.95018	795.5566	-58.3539	289.8902	57.6303	795.1554	-0.0592	0.0182	-0.0073	-0.0462	0.0165	0.9585
14.2071	-0.22822	-2.7738	0.64333	0.87812	-0.89933	-3.2385	2.7171	796.7487	-58.6152	289.8321	56.9786	792.7958	-0.0592	0.0182	-0.0073	-0.0462	0.0165	0.9585
14.2204	-0.24207	-4.0557	0.68911	1.3198	-0.97839	-4.6977	4.4331	793.6337	-58.9541	288.1166	56.4198	786.438	-0.0592	0.0182	-0.0073	-0.0462	0.0165	0.9585
14.2337	-0.11764	-5.3569	0.67917	1.7705	-0.93563	-6.1947	6.1109	786.8704	-59.3678	285.005	55.9354	776.7297	-0.0592	0.0182	-0.0073	-0.0462	0.0165	0.9585
14.247	0.23382	-6.365	0.55785	2.1234	-0.67425	-7.3697	7.7529	777.5791	-59.8693	280.932	55.5281	764.7483	-0.0592	0.0182	-0.0073	-0.0462	0.0165	0.9585
14.2603	0.91171	-6.5816	0.2563	2.2066	-0.079365	-7.6441	9.3797	767.0942	-60.4647	276.412	55.1943	751.7647	-0.0592	0.0182	-0.0073	-0.0462	0.0165	0.9585
14.2736	2.0268	-5.2732	-0.30542	1.7676	0.97805	-6.1701	11.0207	756.6968	-61.1572	271.9386	54.931	738.986	-0.0592	0.0182	-0.0073	-0.0462	0.0165	0.9585
14.2869	3.6579	-1.4638	-1.2084	0.47335	2.6206	-1.8088	12.7172	747.3722	-61.934	267.8949	54.7176	727.3227	-0.0592	0.0182	-0.0073	-0.0462	0.0165	0.9585
14.3001	5.8329	5.9957	-2.5153	-2.0652	4.9272	6.78	14.5164	739.6678	-62.7707	264.4969	54.5186	717.2674	-0.0592	0.0182	-0.0073	-0.0462	0.0165	0.9585
14.3134	8.4459	18.3	-4.245	-6.2517	7.8737	20.9922	16.457	733.5957	-63.6193	261.7605	54.2763	708.8045	-0.0592	0.0182	-0.0073	-0.0462	0.0165	0.9585
14.3267	11.1839	36.3855	-6.3003	-12.4042	11.2291	41.9328	18.5185	728.6315	-64.3869	259.5052	53.9085	701.4287	-0.0592	0.0182	-0.0073	-0.0462	0.0165	0.9585
14.34	13.4327	60.4771	-8.4314	-20.5982	14.4773	69.8889	20.6276	723.8225	-64.9436	257.3923	53.3192	694.2538	-0.0592	0.0182	-0.0073	-0.0462	0.0165	0.9585
